- 
http://www.Speed.Cd      fast  and The Hottest Private Tracker on the net

   signup is open now

Please Seed back to make the speed Faster!!!

------------------nfo--------------------------
-[IMG]http://img98.imageshack.us/img98/6339/l185513421b20f4a.jpg[/IMG]


[color=blue][size=4][b]Beethovens.Christmas.Adventure.2011.DVDRip.XVID.AC3.HQ.Hive-CM8 [/b][/size][/color]


[b]Thx Hive

CM8 Doing It Right The First Time :D

Source: DVD-R

Encode:
Here comes the next christmas movie and also with nice cast, looks funny
Dvd had great quality
Added brightness,sharpness,rgb denoise
got very nice
enjoy

Video: 720x400 @bitrate 1700 2pass
Audio: English AC3 5.1 @448
Sample: yes included[/b]


[url]http://www.imdb.com/title/tt1855134/[/url]


General
Complete name                  : Beethovens.Christmas.Adventure.2011.DVDRip.XVID.AC3.HQ.Hive-CM8.avi
Format                         : AVI
Format/Info                    : Audio Video Interleave
File size                      : 1.35 GiB
Duration                       : 1h 29mn
Overall bit rate               : 2 151 Kbps
Writing application            : Nandub v1.0rc2
Writing library                : Nandub build 1853/release

Video
ID                             : 0
Format                         : MPEG-4 Visual
Format profile                 : Advanced Simple@L5
Format settings, BVOP          : 2
Format settings, QPel          : Yes
Format settings, GMC           : No warppoints
Format settings, Matrix        : Default (H.263)
Muxing mode                    : Packed bitstream
Codec ID                       : XVID
Codec ID/Hint                  : XviD
Duration                       : 1h 29mn
Bit rate                       : 1 694 Kbps
Width                          : 720 pixels
Height                         : 400 pixels
Display aspect ratio           : 16:9
Frame rate                     : 23.976 fps
Color space                    : YUV
Chroma subsampling             : 4:2:0
Bit depth                      : 8 bits
Scan type                      : Progressive
Compression mode               : Lossy
Bits/(Pixel*Frame)             : 0.245
Stream size                    : 1.06 GiB (79%)
Writing library                : XviD 1.2.1 (UTC 2008-12-04)

Audio
ID                             : 1
Format                         : AC-3
Format/Info                    : Audio Coding 3
Mode extension                 : CM (complete main)
Codec ID                       : 2000
Duration                       : 1h 29mn
Bit rate mode                  : Constant
Bit rate                       : 448 Kbps
Channel(s)                     : 6 channels
Channel positions              : Front: L C R, Side: L R, LFE
Sampling rate                  : 48.0 KHz
Bit depth                      : 16 bits
Compression mode               : Lossy
Stream size                    : 287 MiB (21%)
Alignment                      : Split accross interleaves
Interleave, duration           : 42 ms (1.00 video frame)
Interleave, preload duration   : 500 ms


Plot:

A Christmas elf accidentally takes off in Santa's sleigh, crash lands in a small town, 
and loses the magic toy bag. Beethoven must rescue the elf, recover the bag from greedy 
crooks, and return the sleigh to Santa in time to save Christmas. 

Cast:

John Cleese	... 	Narrator
Curtis Armstrong	... 	Kenny
John Kassir	... 	Stray Dog (voice)
Robert Picardo	... 	Smirch
Kim Rhodes	... 	Christine
Tom Arnold	... 	Beethoven (voice)


[img]http://img31.imageshack.us/img31/7655/64312948.png[/img]
[img]http://img542.imageshack.us/img542/8747/bebe.png[/img]
[img]http://img337.imageshack.us/img337/7201/bebebej.png[/img]
[img]http://img26.imageshack.us/img26/7696/bebebebe.png[/img]
[img]http://img856.imageshack.us/img856/909/bebebebebe.png[/img]
[img]http://img20.imageshack.us/img20/5969/bebebebebebe.png[/img]
[img]http://img259.imageshack.us/img259/3021/bebebebebebebe.png[/img]



Greetz

ViSiON,SPK,SiC,SANTi,3LT0N,YanKeeS,MAGNET,THC,T0XiC,LKRG,FANTASIA-PLAY,FANTASIA-M,FLAWL3SS,
WBZ,BHRG,NOVA,D2U,Vik,Rapeseed,SAFC,goldadvance,MEMORY100,KaN1vE,Unevano,Pinnz,Wayne
Mr Hive,and all P2P groups
Great Work Guys :D

LOOKING FOR ANYTHING YOU WANT TO LOOK AND SOUND BETTER

CM8@hushmail.com